<svg xmlns="http://www.w3.org/2000/svg" viewBox="0 0 215.5 143.46">
<g><path fill="#b6004c" d="M32.33 69.27v-4.08h-1.41c-1.65 0-2.06-.7-2.06-2.06V42.36h2.82v-4.08H17.14v4.08h1.41c1.66 0 2.07.7 2.07 2.06v6.69h-8.86v-8.75h2.82v-4.08H0v4.08h1.45c1.66 0 2.06.7 2.06 2.06v20.77H.7v4.08h14.53v-4.08h-1.41c-1.66 0-2.06-.7-2.06-2.06v-7.34h8.86v9.4H17.8v4.08Zm24.09 0V65.8h-1.76c-.95 0-1.45-.4-1.45-1.41V54.18c0-6.44-4.13-8.6-10-8.6A25.44 25.44 0 0 0 35 47v4.27a19.22 19.22 0 0 1 7.14-1.56c2.11 0 3.32.91 3.32 3v1.41c-7.39.15-12.62 3.12-12.62 8.4s3.52 7.39 7.44 7.39a10.16 10.16 0 0 0 6.59-2.46c.6 1.31 2.06 1.81 3.77 1.81Zm-11-5.44a4.42 4.42 0 0 1-2.51.86 2.59 2.59 0 0 1-2.77-2.76c0-2.22 2-4 5.28-4.23v6.13Zm24.78 5.44V65.8h-1c-1.16 0-1.71-.25-1.71-1.46V39.4c0-1.16-.55-1.51-1.91-1.51-1.81 0-4.83.35-9.56.35l.71 3.52h3v24h-2.52v3.47Zm14.09 0V65.8h-1c-1.16 0-1.71-.25-1.71-1.46V39.4c0-1.16-.55-1.51-1.91-1.51-1.81 0-4.83.35-9.56.35l.71 3.52h3v24H71.3v3.47Zm23.72 0V65.8h-1.76c-1 0-1.46-.4-1.46-1.41V54.18c0-6.44-4.12-8.6-10-8.6A25.43 25.43 0 0 0 86.63 47v4.27a19.18 19.18 0 0 1 7.14-1.56c2.11 0 3.32.91 3.32 3v1.41c-7.4.15-12.63 3.12-12.63 8.4s3.54 7.4 7.44 7.4a10.19 10.19 0 0 0 6.6-2.46c.6 1.31 2.06 1.81 3.77 1.81Zm-11-5.44a4.43 4.43 0 0 1-2.52.86 2.58 2.58 0 0 1-2.76-2.76c0-2.22 2-4 5.28-4.23v6.13Zm52.84 5.44V65.8h-1c-1.16 0-1.71-.21-1.71-1.46V53.22a7.64 7.64 0 0 0-2-5.68 7.49 7.49 0 0 0-5.33-2 11.65 11.65 0 0 0-7.75 3 4.4 4.4 0 0 0-.9-1.06 7.52 7.52 0 0 0-5.34-2 11.15 11.15 0 0 0-6.69 2.56v-.75c0-1.16-.55-1.51-1.91-1.51-1.81 0-4.83.35-9.55.35l.7 3.52h3v16h-2.62v3.47h12.78V65.8H121c-1.15 0-1.71-.25-1.71-1.46v-12a5.59 5.59 0 0 1 3.71-1.63c1.61 0 2.57.9 2.57 2.81V65.8h-2.11v3.47h12.27V65.8H135c-1.16 0-1.71-.21-1.71-1.46V53.22c0-.3-.05-.6-.05-.9a5.38 5.38 0 0 1 3.76-1.61c1.61 0 2.56.9 2.56 2.81V65.8h-2.16v3.47ZM26.79 24.5a8.09 8.09 0 0 0-2.56-6 17.59 17.59 0 0 0-4.13-2.57l-3.82-1.76c-3.12-1.46-4.83-2.51-4.83-4.37 0-1.65 1.66-2.8 3.72-2.8a5.1 5.1 0 0 1 3.57 1.4 6.55 6.55 0 0 1 1.56 3l.41 1.55a1.34 1.34 0 0 0 1.45 1.21h2.67V2.31H20.6l-.2 1.56a9.7 9.7 0 0 0-6.64-2.16C8 1.71 3.2 5.28 3.2 11.27c0 3.92 2.31 7.09 7.14 9.1l3.72 1.56c2.92 1.21 4.18 2.16 4.18 4a2.36 2.36 0 0 1-.65 1.61 4.62 4.62 0 0 1-3.27 1.16 5.37 5.37 0 0 1-5.74-4.83l-.2-1.1c-.2-1.21-.65-1.46-1.91-1.46H3.85v12h4.23l.3-1.76a10.68 10.68 0 0 0 6.89 2.37c7.7 0 11.52-4 11.52-9.4ZM55 33.29v-3.46h-1c-1.16 0-1.71-.21-1.71-1.46V17.25c0-2.57-.7-4.47-2-5.68A7.5 7.5 0 0 0 45 9.6a11.22 11.22 0 0 0-6.89 2.57v-8.7c0-1.16-.55-1.47-1.91-1.47-1.81 0-4.83.35-9.56.35l.7 3.52h3v24h-2.6v3.46h12.93v-3.5h-.85c-1.16 0-1.71-.25-1.71-1.46v-12a5.8 5.8 0 0 1 3.82-1.66c1.61 0 2.62.85 2.62 2.81v12.31h-2.17v3.46Zm22-12c0-6.5-3.67-11.69-10.56-11.69-7.19 0-11.62 5.29-11.62 12.28C54.82 29.12 58.9 34 66.34 34a15.38 15.38 0 0 0 9.76-3.47l-2-3.27a10.57 10.57 0 0 1-6.1 2.01c-3.22 0-5-2.41-5.08-6.23h13.93a10.45 10.45 0 0 0 .1-1.76Zm-7.34-2.77v1.06H63c.1-2.17.75-5.64 3.57-5.64 2.62 0 3 2.77 3 4.58ZM87 7.94c0-2.31 1.41-3 3.37-3a11.59 11.59 0 0 1 3.72.65V1.11A18.67 18.67 0 0 0 87.94 0c-5.28 0-8.6 2.56-8.6 7.7a6.49 6.49 0 0 0 .66 2.56h-2.93v3.52h3.47v16h-2.61v3.46H91v-3.41h-1c-1.16 0-1.71-.41-1.71-1.46V13.78h5.28l-.7-3.52h-5A4.19 4.19 0 0 1 87 7.94Zm35.53-3.57c0-2.46-2-3.92-4.32-3.92s-4.33 1.46-4.33 3.92 2 3.93 4.33 3.93 4.32-1.46 4.32-3.93Zm-18 3.57a2.68 2.68 0 0 1 3-3 14.81 14.81 0 0 1 4.08.7l.65-4.48A22.92 22.92 0 0 0 105.51 0c-5.63 0-8.6 2.86-8.6 7.49a9.33 9.33 0 0 0 .55 2.77H94l.71 3.52h3v16h-2.56v3.46h13v-3.41h-1c-1.16 0-1.71-.41-1.71-1.46V13.78h9.2v16h-2.54v3.46h13v-3.41h-1c-1.15 0-1.71-.25-1.71-1.46v-17c0-1.16-.55-1.51-1.91-1.51-1.81 0-5.78.35-10.46.35h-5a6.54 6.54 0 0 1-.5-2.32Zm43 13.34c0-6.49-3.62-11.68-10.51-11.68-7.19 0-11.62 5.29-11.62 12.28.1 7.24 4.17 12.12 11.6 12.12a15.4 15.4 0 0 0 9.76-3.47l-2-3.27a10.52 10.52 0 0 1-6.08 2.06c-3.22 0-5-2.41-5.08-6.23h13.93a10.45 10.45 0 0 0 .1-1.76Zm-7.34-2.77v1.06h-6.49c.1-2.17.75-5.64 3.57-5.64 2.61 0 3 2.77 3 4.58Zm21.25 14.78v-3.46h-1c-1.15 0-1.71-.25-1.71-1.46V3.47c0-1.16-.55-1.51-1.91-1.51-1.81 0-4.83.35-9.56.35l.71 3.52h3v24h-2.62v3.46Zm25.62 0v-3.46h-1.46a1.36 1.36 0 0 1-1.6-1.56V3.47c0-1.16-.55-1.51-1.91-1.51-1.81 0-4.83.35-9.56.35l.71 3.52h3v4.48a12.57 12.57 0 0 0-4-.71c-5.43 0-10.61 4-10.61 12 0 7.54 3.87 12.37 10.26 12.37a9 9 0 0 0 6.19-2.36c.65 1.2 2.21 1.7 3.87 1.7Zm-10.87-4.92a4.07 4.07 0 0 1-2.61.95c-2 0-4-1.71-4-7.64 0-6.24 2.06-7.9 4.07-7.9a5.52 5.52 0 0 1 2.51.6v14Z"/>
<path fill="#7b003a" d="M30.8 77.42v-4.08H16.87v4.08h1.35c1.66 0 2.12.55 2.12 2.06v14.68a6.88 6.88 0 0 1-.86 3.84 3.81 3.81 0 0 1-3.42 1.66A4.21 4.21 0 0 1 12.74 98c-.9-1.36-1-2.77-1-6.29V77.42h2.86v-4.08H.07v4.08h1.35c1.67 0 2.12.6 2.12 2.06v13.38c0 3.82.8 7.09 3.37 9.3 2.06 1.76 5.33 2.72 9 2.72 4.28 0 7.65-1.46 9.56-3.67S28 95.88 28 92.56V77.42ZM58 104.33v-3.47h-1c-1.16 0-1.71-.21-1.71-1.46V88.28a7.63 7.63 0 0 0-2-5.68 7.5 7.5 0 0 0-5.33-2 11.24 11.24 0 0 0-6.9 2.57v-.76c0-1.15-.55-1.5-1.91-1.5-1.81 0-4.82.35-9.55.35l.7 3.52h3v16h-2.54v3.47h12.83v-3.47h-.76c-1.15 0-1.71-.26-1.71-1.46v-12A5.88 5.88 0 0 1 45 85.77c1.61 0 2.61.85 2.61 2.81v12.28H45.3v3.47Zm14.22 0v-3.47h-1c-1.15 0-1.71-.26-1.71-1.46v-17c0-1.15-.55-1.5-1.91-1.5-1.81 0-4.83.35-9.55.35l.7 3.52h3v16h-2.59v3.47ZM98 84.81l-.7-3.52H86.86v3.52h2.37l-4 11.77-3.57-9.66c-.45-1.2-.15-2.11 1.21-2.11h1v-3.52H70.82v3.52h2.56l7.75 19.52h6.28l6.69-17.71a2.28 2.28 0 0 1 2.57-1.81Zm20.38 7.49c0-6.48-3.63-11.67-10.52-11.67-7.19 0-11.62 5.29-11.62 12.28 0 7.24 4.08 12.07 11.52 12.07a15.36 15.36 0 0 0 9.76-3.47l-2-3.27a10.53 10.53 0 0 1-6.09 2.06c-3.22 0-5-2.41-5.08-6.23h13.94a10.51 10.51 0 0 0 .1-1.77ZM111 89.54v1h-6.54c.1-2.16.76-5.63 3.58-5.63 2.61 0 3 2.77 3 4.58Zm26.41-3.22v-4.23c0-1-.51-1.46-1.72-1.46a7.85 7.85 0 0 0-6 3.07v-1.26c0-1.15-.61-1.5-1.91-1.5-1.81 0-4.83.35-9.56.35l.71 3.52h3v16h-2.63v3.47h13v-3.47h-.95c-1.16 0-1.71-.26-1.71-1.46V88a10.33 10.33 0 0 1 6-1.76h1.72ZM157 98c0-3.67-2-5.64-5.24-7l-3.57-1.56c-2.06-.91-2.81-1.46-2.81-2.62s1.15-2.06 2.76-2.06a3.44 3.44 0 0 1 3.73 3.12l.15 1.1c.15 1 .55 1.36 1.71 1.36h1.91v-9h-2.77l-.25 1.31a8.07 8.07 0 0 0-5.78-2c-4.53 0-8.6 2.77-8.6 7.25 0 3.87 2.36 5.94 5.58 7.19l3.18 1.24c2.21.85 2.86 1.41 2.86 2.56s-1.15 1.91-2.86 1.91c-2.52 0-4.28-1.25-4.63-3.46l-.15-.91c-.2-1.16-.51-1.31-1.76-1.31h-1.91v9.21h2.76l.35-1.46a10.06 10.06 0 0 0 6.49 2.11c5 0 8.86-2.87 8.86-6.94Zm14.11 6.29v-3.47h-1c-1.15 0-1.71-.26-1.71-1.46v-17c0-1.15-.55-1.5-1.91-1.5-1.81 0-4.83.35-9.56.35l.71 3.52h3v16h-2.62v3.47Zm15.94-.41V99.6a10.86 10.86 0 0 1-3.07.55 2.7 2.7 0 0 1-2.62-1.51 7.68 7.68 0 0 1-.55-3.42V84.81h5.38l-.7-3.52h-4.78v-6l-5.48.86a2.34 2.34 0 0 0-2.17 2.66v2.47h-2.86v3.52h2.86v10.27c0 4.22.76 6.44 2.22 7.9a8.06 8.06 0 0 0 5.83 2 19.36 19.36 0 0 0 5.94-1Zm28.45-19.07-.71-3.52h-12.67v3.52h2.46v13.38a5.82 5.82 0 0 1-3.82 1.66c-1.61 0-2.62-.86-2.62-2.82V82.44c0-1.15-.55-1.5-1.91-1.5-1.81 0-4.83.35-9.55.35l.7 3.52h3v12.57a7.57 7.57 0 0 0 2 5.64 7.77 7.77 0 0 0 5.33 2 11.26 11.26 0 0 0 6.89-2.56v3.06a6.58 6.58 0 0 1-.85 3.77c-.81 1.06-2.27 1.67-4.33 1.67a19 19 0 0 1-6.34-1.16v4.88a26.81 26.81 0 0 0 7 1c6.49 0 10.16-2.81 11.57-6.59a20.21 20.21 0 0 0 .71-6.63V86.72c0-1.41.7-1.91 1.86-1.91ZM69.62 75.43c0-2.47-2-3.93-4.32-3.93S61 73 61 75.43s2 3.92 4.33 3.92 4.32-1.46 4.32-3.92Zm99 0c0-2.47-2-3.93-4.32-3.93s-4.33 1.46-4.33 3.93 2 3.92 4.33 3.92 4.32-1.46 4.32-3.92Z"/>
<path fill="#575756" d="M12.91 137.63 8 130.48v4c0 .71.23 1 1.07 1h.69v2.07h-7.4v-2.07h1.43V125c0-.71-.23-1-1.07-1H2v-2.1h7.41v2.1H8v4.72l3.14-3.7a16.1 16.1 0 0 0 2.2-3.09h4.11V124h-1.1a2 2 0 0 0-1.69.79l-3.14 3.65 4.32 6.11a2 2 0 0 0 1.89 1h.64v2.07ZM26.42 137.63v-1.76h1.15v-6.23c0-1-.51-1.43-1.33-1.43a3 3 0 0 0-1.94.84v6.08c0 .61.28.74.87.74h.38v1.76H19v-1.76h1.33v-8.15h-1.5l-.35-1.79c2.4 0 3.93-.18 4.85-.18.69 0 1 .18 1 .77v.38a5.71 5.71 0 0 1 3.5-1.3 3.8 3.8 0 0 1 2.71 1 3.88 3.88 0 0 1 1 2.88v5.65c0 .64.28.74.87.74h.49v1.76ZM39.57 138c-3.5 0-5.92-2-5.92-6.18s2.42-6.18 5.92-6.18 5.93 2 5.93 6.18-2.43 6.18-5.93 6.18Zm0-9.93c-1.32 0-1.84 1.28-1.84 3.75s.52 3.76 1.84 3.76 1.84-1.28 1.84-3.76-.51-3.82-1.84-3.82ZM64.2 127.72a1.41 1.41 0 0 0-1.54 1.18l-2.52 8.73H57l-1.74-5.57-1.79 5.57h-3.22L47 127.72h-1.3v-1.79h6.47v1.79h-.51c-.69 0-.82.41-.64 1l1.4 4.75 2.4-7.56h1.64l2.45 7.59 1.53-5.8h-1.33v-1.79h5.42l.36 1.79Z"/><path fill="#575756" d="M64.68 137.63v-1.76H66V122h-1.52l-.36-1.79c2.4 0 3.93-.18 4.85-.18.69 0 1 .18 1 .77v14.33c0 .61.28.74.87.74h.49v1.76ZM83.3 132.42h-7.07c0 1.94.94 3.17 2.58 3.17a5.35 5.35 0 0 0 3.09-1.05l1 1.66A7.79 7.79 0 0 1 78 138c-3.78 0-5.85-2.45-5.85-6.13s2.25-6.23 5.9-6.23c3.5 0 5.34 2.63 5.34 5.93a5.37 5.37 0 0 1-.09.85Zm-5.21-4.62c-1.43 0-1.76 1.76-1.81 2.86h3.32v-.54c.02-.92-.18-2.32-1.51-2.32ZM94.85 137.63a2.12 2.12 0 0 1-2-.87 4.53 4.53 0 0 1-3.14 1.2c-3.25 0-5.21-2.45-5.21-6.28 0-4 2.63-6.08 5.39-6.08a6.36 6.36 0 0 1 2 .36v-4h-1.46l-.36-1.79c2.4 0 3.93-.18 4.85-.18.69 0 1 .18 1 .77v14.28c0 .46.18.79.8.79h.79v1.76ZM92 128a2.76 2.76 0 0 0-1.28-.31c-1 0-2.06.84-2.06 4s1 3.88 2 3.88a2.09 2.09 0 0 0 1.33-.48ZM104 143.46c-3.29 0-5.87-1.13-5.87-3.55a2.24 2.24 0 0 1 1.66-2.2A2.28 2.28 0 0 1 99 136a3.6 3.6 0 0 1 1.09-2.35 4.48 4.48 0 0 1-1.25-3.3c0-2.94 2-4.7 5.34-4.7a10.23 10.23 0 0 1 1.28.1c1.1-1.61 2.27-2.19 3.37-2.19.92 0 1.17.51 1.17 1.25v.87a3.84 3.84 0 0 0-2.68.69 4.25 4.25 0 0 1 2.2 4c0 2.94-2 4.7-5.34 4.7a7.18 7.18 0 0 1-2.3-.33 1.47 1.47 0 0 0-.15.54c0 .51.53.66 2 .66h2.17c3.14 0 4.5 1.25 4.5 3.55.03 1.95-1.71 3.97-6.4 3.97Zm1.41-4.7h-1.23a13.37 13.37 0 0 1-2.53-.13 1.22 1.22 0 0 0-.28.74c0 1.17 1.25 1.71 2.84 1.71 1.91 0 2.83-.66 2.83-1.33s-.42-.99-1.59-.99Zm-1.28-11c-1.07 0-1.43 1-1.43 2.58s.36 2.58 1.43 2.58 1.43-1 1.43-2.58-.32-2.62-1.39-2.62ZM122.43 132.42h-7.07c0 1.94.94 3.17 2.58 3.17a5.35 5.35 0 0 0 3.09-1.05l1 1.66a7.79 7.79 0 0 1-5 1.76c-3.78 0-5.85-2.45-5.85-6.13s2.25-6.23 5.91-6.23c3.49 0 5.33 2.63 5.33 5.93a5.37 5.37 0 0 1 .01.89Zm-5.21-4.62c-1.43 0-1.76 1.76-1.81 2.86h3.32v-.54c.02-.92-.18-2.32-1.51-2.32ZM137.71 137.63v-2.07h1.22l-.89-2.68h-4.45l-.66 1.76a1.71 1.71 0 0 0-.1.41c0 .41.31.51.74.51h.74v2.07h-5.82v-2.07H130l5.32-13.66H138l4.88 12.69a1.37 1.37 0 0 0 1.45 1h.49v2.07Zm-1.77-11-1.63 4.37h3.12ZM156.56 136.59a4.6 4.6 0 0 1-3.27 1.37 4 4 0 0 1-2.68-.86v4.13c0 1.28-.67 2.1-2.35 2.1H145v-1.87h.89c.59 0 .77-.25.77-.66v-13.08h-1.54l-.35-1.79c2.4 0 3.93-.18 4.85-.18.69 0 1 .18 1 .77v.38a4.9 4.9 0 0 1 3.22-1.3c2.5 0 4.39 2.12 4.39 6.18a6.83 6.83 0 0 1-1.67 4.81Zm-4.17-8.36a3 3 0 0 0-1.81.82v4.55c0 1.25.59 1.89 1.58 1.89 1.23 0 2-1.28 2-3.71s-.59-3.55-1.77-3.55ZM170.48 136.59a4.58 4.58 0 0 1-3.27 1.37 4 4 0 0 1-2.68-.86v4.13c0 1.28-.67 2.1-2.35 2.1h-3.27v-1.87h.89c.59 0 .77-.25.77-.66v-13.08H159l-.35-1.79c2.4 0 3.93-.18 4.85-.18.69 0 1 .18 1 .77v.38a4.9 4.9 0 0 1 3.22-1.3c2.5 0 4.39 2.12 4.39 6.18a6.83 6.83 0 0 1-1.63 4.81Zm-4.17-8.36a3 3 0 0 0-1.81.82v4.55c0 1.25.59 1.89 1.58 1.89 1.23 0 1.95-1.28 1.95-3.71s-.54-3.55-1.72-3.55ZM173.16 137.63v-1.76h1.33V122H173l-.35-1.79c2.4 0 3.93-.18 4.85-.18.69 0 1 .18 1 .77v14.33c0 .61.28.74.87.74h.49v1.76ZM180.9 137.63v-1.76h1.33v-8.15h-1.54l-.35-1.79c2.4 0 3.93-.18 4.85-.18.69 0 1 .18 1 .77v8.61c0 .61.28.74.87.74h.48v1.76Zm3.1-13.43a2 2 0 1 1 2.2-2 2 2 0 0 1-2.2 2ZM199.52 132.42h-7.08c.05 1.94.95 3.17 2.58 3.17a5.32 5.32 0 0 0 3.09-1.05l1 1.66a7.81 7.81 0 0 1-5 1.76c-3.78 0-5.85-2.45-5.85-6.13s2.25-6.23 5.9-6.23 5.34 2.63 5.34 5.93a5.37 5.37 0 0 1 .02.89Zm-5.21-4.62c-1.43 0-1.76 1.76-1.82 2.86h3.33v-.54c.02-.92-.18-2.32-1.51-2.32ZM211.06 137.63a2.12 2.12 0 0 1-2-.87A4.56 4.56 0 0 1 206 138c-3.25 0-5.22-2.45-5.22-6.28 0-4 2.64-6.08 5.39-6.08a6.42 6.42 0 0 1 2.05.36v-4h-1.53l-.36-1.79c2.4 0 3.93-.18 4.85-.18.69 0 1 .18 1 .77v14.28a.69.69 0 0 0 .79.79h.8v1.76Zm-2.88-9.6a2.8 2.8 0 0 0-1.28-.31c-1 0-2.07.84-2.07 4s1 3.88 2 3.88a2.11 2.11 0 0 0 1.33-.48Z"/><path fill="#7b003a" d="M0 109.75h187.77v4.13H0z"/></g></svg>